<svg id="レイヤー_1" xmlns="http://www.w3.org/2000/svg" viewBox="0 0 512.4 94.3"><style>.st0{fill:#fff}</style><path class="st0" d="M187.9 56.7c0 11-3.1 20.1-9.2 27.1s-14.1 10.5-24 10.5-17.9-3.5-24-10.5c-6.1-7-9.2-16-9.2-27.1 0-11.1 3.1-20.2 9.2-27.4 6.1-7.2 14.1-10.8 23.9-10.8 9.8 0 17.8 3.6 23.9 10.8 6.3 7.2 9.4 16.3 9.4 27.4zm-9.9 0c0-10.3-2.1-18.7-6.4-25.2-4.3-6.5-9.9-9.8-16.9-9.8-7 0-12.6 3.3-16.9 9.8-4.2 6.5-6.4 14.9-6.4 25.2 0 10.2 2.1 18.5 6.3 24.8 4.2 6.3 9.8 9.5 16.9 9.5 7 0 12.7-3.2 16.9-9.5 4.3-6.3 6.5-14.6 6.5-24.8zm156.2.1c0 10.7-3.1 19.4-9.3 25.9s-14.5 9.9-25.1 9.9h-32.6c-.5 0-.7-.5-.7-1.5 0-.9.2-1.3.7-1.4 2.5-.3 4.4-.8 5.7-1.4s2.2-1.3 2.8-2.3c.5-1 .8-2.7.8-5.1V32c0-2.4-.2-4.1-.7-5.1-.5-1-1.4-1.8-2.7-2.4-1.3-.6-3.3-1.1-5.8-1.4-.5 0-.7-.5-.7-1.4s.2-1.4.7-1.4c3.5.3 31.3.1 32.6.1 10.3 0 18.5 3.4 24.9 10.2 6.2 6.7 9.4 15.5 9.4 26.2zm-9.9 0c0-9.5-2.3-17.4-7-23.7-4.7-6.3-10.5-9.4-17.5-9.4h-.3l-8.5.2c-3.5.1-5.3 2.2-5.3 6.1v53c0 4 1.8 6 5.3 6l8.5.3c7 0 12.9-3.1 17.6-9.3 4.8-6.2 7.2-13.9 7.2-23.2zM38.3 4.5c2.9.4 5.1 1.3 6.5 2.9 1.4 1.6 3.3 5 5.5 10.4l12.4 30 2.5 6.1 10.6 25.6 5.7-15.3-10-23.2-2.6-6.2-8.2-19.2c-1.2-2.8-1.7-4.8-1.7-6.1 0-2.9 2.5-4.6 7.6-5 .4 0 .6-.6.6-1.8 0-1.2-.3-1.8-.9-1.8H38c-.5 0-.8.6-.8 1.8 0 .5.1.9.4 1.3.1.3.4.5.7.5zm-37.1 0c3.5.4 6.2 1.6 8.2 3.5 2 1.9 3.8 5.1 5.6 9.8L38.4 80l6.5-14.1L26 15.7c-.6-1.6-.9-2.9-.9-3.9 0-2.1.7-3.7 2.2-5 1.4-1.3 3.4-2 6-2.2.4 0 .6-.6.6-1.8 0-1.2-.3-1.8-.9-1.8H1C.3.9 0 1.5 0 2.7c0 .5.1.9.4 1.3.3.3.5.5.8.5zm118.7-3.2c-6.7 2.9-11.3 13.8-12.1 16L86.2 75.7v-.1L80.5 91l.8 1.9c.4.7.9 1 1.6 1 .9 0 1.4-.3 1.6-1l28.8-75.2c1.9-5 3.7-8.4 5.5-10.2s4-2.8 6.8-3.1c.3 0 3.8.3 3.8-2.1-.2-2.5-3.7-2.7-9.5-1zM438 7c2 1.2 4.4 4.1 7 8.6l14.9 24.9 6.8-10.3-8.8-14.6c-1.9-3.2-2.8-5.5-2.8-7 0-1.1.5-1.9 1.6-2.6 1.1-.6 3.2-1.2 6.3-1.6.6 0 .9-.6.9-1.8 0-1.2-.3-1.8-.9-1.8h-34c-.6 0-.9.6-.9 1.8 0 1.2.3 1.8.9 1.8 4 .6 7 1.4 9 2.6zm72.8 81.3c-4.2-.6-7.2-1.4-9.1-2.5-1.9-1.1-4.2-4-7-8.6l-20.8-34.8 18-26.8c2.7-4 5.1-6.7 7.3-8.2 2.2-1.5 5.3-2.5 9.3-3 .3 0 .6-.2.8-.5.3-.4.4-.8.4-1.3 0-1.2-2.6-3-9.3-1.3-6.9 1.3-24 29.5-24 29.5l-11.8 17.8-18.7 28.5c-2.8 4.1-5.2 6.9-7.3 8.3-2.1 1.4-5 2.3-8.7 2.8-.8.1-1.2.7-1.2 1.8 0 1.2.3 1.8.9 1.8h30c.6 0 .9-.6.9-1.8 0-1.1-.2-1.7-.7-1.8-3.4-.5-5.8-1.2-7.2-2.1-1.4-.9-2.1-2.1-2.1-3.7s.6-3.4 1.8-5.3L467 52.5l14.7 24.6c1.9 3.1 2.8 5.5 2.8 6.9 0 1.9-2.6 3.3-7.8 4.1-.6.1-.9.7-.9 1.8 0 1.2.3 1.8.8 1.8h34c.6 0 .9-.6.9-1.8.2-.9-.1-1.5-.7-1.6zM346.6 7c2 1.2 4.4 4.1 7 8.6l14.9 24.9 6.8-10.3-8.8-14.6c-1.9-3.2-2.8-5.5-2.8-7 0-1.1.5-1.9 1.6-2.6 1.1-.6 3.2-1.2 6.3-1.6.6 0 .9-.6.9-1.8 0-1.2-.3-1.8-.9-1.8h-34c-.6 0-.9.6-.9 1.8 0 1.2.3 1.8.9 1.8 4 .6 7 1.4 9 2.6zm72.8 81.3c-4.2-.6-7.2-1.4-9.1-2.5-1.9-1.1-4.2-4-7-8.6l-20.8-34.8 18-26.8c2.7-4 5.1-6.7 7.3-8.2 2.2-1.5 5.3-2.5 9.3-3 .3 0 .6-.2.8-.5.3-.4.4-.8.4-1.3 0-1.2-2.6-3.1-9.3-1.3-6.9 1.3-24 29.5-24 29.5l-11.8 17.8-18.7 28.5c-2.8 4.1-5.2 6.9-7.3 8.3-2.1 1.4-5 2.3-8.7 2.8-.8.1-1.2.7-1.2 1.8 0 1.2.3 1.8.9 1.8h30c.6 0 .9-.6.9-1.8 0-1.1-.2-1.7-.7-1.8-3.4-.5-5.8-1.2-7.2-2.1-1.4-.9-2.1-2.1-2.1-3.7s.6-3.4 1.8-5.3l14.7-24.6 14.7 24.6c1.9 3.1 2.8 5.5 2.8 6.9 0 1.9-2.6 3.3-7.8 4.1-.6.1-.9.7-.9 1.8 0 1.2.3 1.8.8 1.8h34c.6 0 .9-.6.9-1.8.2-.9-.1-1.5-.7-1.6zm-162.9 1.5c-3-.4-5.5-1.2-7.4-2.3-1.9-1.1-3.4-2.8-4.6-5.1l-13.9-26.2c4.1-1.7 7.4-4.2 9.8-7.3 2.4-3.2 3.6-6.6 3.6-10.3 0-5.9-1.8-10.4-5.5-13.7S229.7 20 223 20h-.9v3.5h.5c7.6 0 11.5 5.1 11.5 15.3 0 5.8-1.1 10.1-3.3 12.7-2.2 2.7-5.7 4-10.6 4-2.6 0-4.8-.1-6.6-.4V31.8c0-1.2 0-2.2.1-3V20c-1.8.1-16.6 0-18.6 0-.5 0-.7.5-.7 1.4s.2 1.4.7 1.4c2.5.3 4.5.8 5.8 1.4 1.3.6 2.2 1.4 2.7 2.4s.7 2.7.7 5.1v49.2c0 2.4-.3 4.1-.8 5.1s-1.4 1.8-2.8 2.3-3.2 1-5.7 1.4c-.5.1-.7.5-.7 1.4 0 1 .2 1.5.7 1.5h27.8c.5 0 .7-.5.7-1.5 0-.9-.3-1.3-.8-1.4-2.5-.3-4.4-.8-5.7-1.4s-2.3-1.4-2.8-2.3c-.5-1-.8-2.7-.8-5.1V58.5c3.6 0 5.9.5 7.1 1.5 1.2 1 2.7 3.3 4.7 6.9l13.6 25.8h17.3c.5 0 .7-.5.7-1.5.4-.9.2-1.4-.3-1.4z"/><path class="st0" d="M89.3.8C82.3 3.3 76.9 14 76 16.1L50.1 73.5v-.1l-6.8 15.2.7 2c.3.7.8 1.1 1.5 1.2.9.1 1.4-.3 1.7-.9L81.3 17c2.2-4.9 4.3-8.2 6.2-9.9 1.9-1.7 4.3-2.6 7.1-2.7.3 0 3.8.6 3.9-1.8.2-2.6-3.3-3-9.2-1.8z"/></svg>