<?xml version="1.0" encoding="utf-8"?>
<!-- Generator: Adobe Illustrator 20.0.0, SVG Export Plug-In . SVG Version: 6.00 Build 0)  -->
<svg version="1.1" id="レイヤー_1" xmlns="http://www.w3.org/2000/svg" xmlns:xlink="http://www.w3.org/1999/xlink" x="0px"
	 y="0px" viewBox="0 0 512.4 94.3" style="enable-background:new 0 0 512.4 94.3;" xml:space="preserve">
<style type="text/css">
	.st0{fill:#FFFFFF;}
</style>
<g>
	<path class="st0" d="M187.9,56.7c0,11-3.1,20.1-9.2,27.1c-6.1,7-14.1,10.5-24,10.5s-17.9-3.5-24-10.5c-6.1-7-9.2-16-9.2-27.1
		c0-11.1,3.1-20.2,9.2-27.4c6.1-7.2,14.1-10.8,23.9-10.8c9.8,0,17.8,3.6,23.9,10.8C184.8,36.5,187.9,45.6,187.9,56.7z M178,56.7
		c0-10.3-2.1-18.7-6.4-25.2c-4.3-6.5-9.9-9.8-16.9-9.8c-7,0-12.6,3.3-16.9,9.8c-4.2,6.5-6.4,14.9-6.4,25.2c0,10.2,2.1,18.5,6.3,24.8
		c4.2,6.3,9.8,9.5,16.9,9.5c7,0,12.7-3.2,16.9-9.5C175.8,75.2,178,66.9,178,56.7z"/>
	<path class="st0" d="M334.2,56.8c0,10.7-3.1,19.4-9.3,25.9s-14.5,9.9-25.1,9.9c-1.3,0-27.1,0-32.6,0c-0.5,0-0.7-0.5-0.7-1.5
		c0-0.9,0.2-1.3,0.7-1.4c2.5-0.3,4.4-0.8,5.7-1.4s2.2-1.3,2.8-2.3c0.5-1,0.8-2.7,0.8-5.1V32c0-2.4-0.2-4.1-0.7-5.1
		c-0.5-1-1.4-1.8-2.7-2.4c-1.3-0.6-3.3-1.1-5.8-1.4c-0.5,0-0.7-0.5-0.7-1.4s0.2-1.4,0.7-1.4c3.5,0.3,31.3,0.1,32.6,0.1
		c10.3,0,18.5,3.4,24.9,10.2C331,37.3,334.2,46.1,334.2,56.8z M324.3,56.8c0-9.5-2.3-17.4-7-23.7c-4.7-6.3-10.5-9.4-17.5-9.4h-0.3
		l-8.5,0.2c-3.5,0.1-5.3,2.2-5.3,6.1v53c0,4,1.8,6,5.3,6l8.5,0.3c7,0,12.9-3.1,17.6-9.3C321.9,73.8,324.3,66.1,324.3,56.8z"/>
	<path class="st0" d="M38.3,4.5c2.9,0.4,5.1,1.3,6.5,2.9c1.4,1.6,3.3,5,5.5,10.4l12.4,30l2.5,6.1l10.6,25.6l5.7-15.3L71.5,41
		l-2.6-6.2l-8.2-19.2c-1.2-2.8-1.7-4.8-1.7-6.1c0-2.9,2.5-4.6,7.6-5c0.4,0,0.6-0.6,0.6-1.8c0-1.2-0.3-1.8-0.9-1.8
		c-2.5,0-25.8,0-28.3,0c-0.5,0-0.8,0.6-0.8,1.8c0,0.5,0.1,0.9,0.4,1.3C37.7,4.3,38,4.5,38.3,4.5z"/>
	<path class="st0" d="M1.2,4.5c3.5,0.4,6.2,1.6,8.2,3.5c2,1.9,3.8,5.1,5.6,9.8L38.4,80l6.5-14.1L26,15.7c-0.6-1.6-0.9-2.9-0.9-3.9
		c0-2.1,0.7-3.7,2.2-5c1.4-1.3,3.4-2,6-2.2c0.4,0,0.6-0.6,0.6-1.8c0-1.2-0.3-1.8-0.9-1.8c-2.5,0-29.4,0-32,0C0.3,0.9,0,1.5,0,2.7
		c0,0.5,0.1,0.9,0.4,1.3C0.7,4.3,0.9,4.5,1.2,4.5z"/>
	<path class="st0" d="M119.9,1.3c-6.7,2.9-11.3,13.8-12.1,16L86.2,75.7l0-0.1l-5.7,15.4l0.8,1.9c0.4,0.7,0.9,1,1.6,1
		c0.9,0,1.4-0.3,1.6-1l28.8-75.2c1.9-5,3.7-8.4,5.5-10.2s4-2.8,6.8-3.1c0.3,0,3.8,0.3,3.8-2.1C129.2-0.2,125.7-0.4,119.9,1.3z"/>
	<g>
		<path class="st0" d="M438,7c2,1.2,4.4,4.1,7,8.6l14.9,24.9l6.8-10.3l-8.8-14.6c-1.9-3.2-2.8-5.5-2.8-7c0-1.1,0.5-1.9,1.6-2.6
			c1.1-0.6,3.2-1.2,6.3-1.6c0.6,0,0.9-0.6,0.9-1.8c0-1.2-0.3-1.8-0.9-1.8c-2.5,0-32.2,0-34,0c-0.6,0-0.9,0.6-0.9,1.8
			c0,1.2,0.3,1.8,0.9,1.8C433,5,436,5.8,438,7z"/>
		<path class="st0" d="M510.8,88.3c-4.2-0.6-7.2-1.4-9.1-2.5c-1.9-1.1-4.2-4-7-8.6l-20.8-34.8l18-26.8c2.7-4,5.1-6.7,7.3-8.2
			c2.2-1.5,5.3-2.5,9.3-3c0.3,0,0.6-0.2,0.8-0.5c0.3-0.4,0.4-0.8,0.4-1.3c0-1.2-2.6-3-9.3-1.3c-6.9,1.3-24,29.5-24,29.5l-11.8,17.8
			l-18.7,28.5c-2.8,4.1-5.2,6.9-7.3,8.3c-2.1,1.4-5,2.3-8.7,2.8c-0.8,0.1-1.2,0.7-1.2,1.8c0,1.2,0.3,1.8,0.9,1.8c2.3,0,27.4,0,30,0
			c0.6,0,0.9-0.6,0.9-1.8c0-1.1-0.2-1.7-0.7-1.8c-3.4-0.5-5.8-1.2-7.2-2.1c-1.4-0.9-2.1-2.1-2.1-3.7c0-1.6,0.6-3.4,1.8-5.3
			l14.7-24.6l14.7,24.6c1.9,3.1,2.8,5.5,2.8,6.9c0,1.9-2.6,3.3-7.8,4.1c-0.6,0.1-0.9,0.7-0.9,1.8c0,1.2,0.3,1.8,0.8,1.8
			c2.6,0,32.2,0,34,0c0.6,0,0.9-0.6,0.9-1.8C511.7,89,511.4,88.4,510.8,88.3z"/>
	</g>
	<g>
		<path class="st0" d="M346.6,7c2,1.2,4.4,4.1,7,8.6l14.9,24.9l6.8-10.3l-8.8-14.6c-1.9-3.2-2.8-5.5-2.8-7c0-1.1,0.5-1.9,1.6-2.6
			c1.1-0.6,3.2-1.2,6.3-1.6c0.6,0,0.9-0.6,0.9-1.8c0-1.2-0.3-1.8-0.9-1.8c-2.5,0-32.2,0-34,0c-0.6,0-0.9,0.6-0.9,1.8
			c0,1.2,0.3,1.8,0.9,1.8C341.6,5,344.6,5.8,346.6,7z"/>
		<path class="st0" d="M419.4,88.3c-4.2-0.6-7.2-1.4-9.1-2.5c-1.9-1.1-4.2-4-7-8.6l-20.8-34.8l18-26.8c2.7-4,5.1-6.7,7.3-8.2
			c2.2-1.5,5.3-2.5,9.3-3c0.3,0,0.6-0.2,0.8-0.5c0.3-0.4,0.4-0.8,0.4-1.3c0-1.2-2.6-3.1-9.3-1.3c-6.9,1.3-24,29.5-24,29.5
			l-11.8,17.8l-18.7,28.5c-2.8,4.1-5.2,6.9-7.3,8.3c-2.1,1.4-5,2.3-8.7,2.8c-0.8,0.1-1.2,0.7-1.2,1.8c0,1.2,0.3,1.8,0.9,1.8
			c2.3,0,27.4,0,30,0c0.6,0,0.9-0.6,0.9-1.8c0-1.1-0.2-1.7-0.7-1.8c-3.4-0.5-5.8-1.2-7.2-2.1c-1.4-0.9-2.1-2.1-2.1-3.7
			c0-1.6,0.6-3.4,1.8-5.3l14.7-24.6l14.7,24.6c1.9,3.1,2.8,5.5,2.8,6.9c0,1.9-2.6,3.3-7.8,4.1c-0.6,0.1-0.9,0.7-0.9,1.8
			c0,1.2,0.3,1.8,0.8,1.8c2.6,0,32.2,0,34,0c0.6,0,0.9-0.6,0.9-1.8C420.3,89,420,88.4,419.4,88.3z"/>
	</g>
	<path class="st0" d="M256.5,89.8c-3-0.4-5.5-1.2-7.4-2.3c-1.9-1.1-3.4-2.8-4.6-5.1l-13.9-26.2c4.1-1.7,7.4-4.2,9.8-7.3
		c2.4-3.2,3.6-6.6,3.6-10.3c0-5.9-1.8-10.4-5.5-13.7s-8.8-4.9-15.5-4.9c-0.3,0-0.6,0-0.9,0v3.5c0.2,0,0.4,0,0.5,0
		c7.6,0,11.5,5.1,11.5,15.3c0,5.8-1.1,10.1-3.3,12.7c-2.2,2.7-5.7,4-10.6,4c-2.6,0-4.8-0.1-6.6-0.4V31.8c0-1.2,0-2.2,0.1-3V20
		c-1.8,0.1-16.6,0-18.6,0c-0.5,0-0.7,0.5-0.7,1.4s0.2,1.4,0.7,1.4c2.5,0.3,4.5,0.8,5.8,1.4c1.3,0.6,2.2,1.4,2.7,2.4
		c0.5,1,0.7,2.7,0.7,5.1v49.2c0,2.4-0.3,4.1-0.8,5.1c-0.5,1-1.4,1.8-2.8,2.3s-3.2,1-5.7,1.4c-0.5,0.1-0.7,0.5-0.7,1.4
		c0,1,0.2,1.5,0.7,1.5c2,0,25.8,0,27.8,0c0.5,0,0.7-0.5,0.7-1.5c0-0.9-0.3-1.3-0.8-1.4c-2.5-0.3-4.4-0.8-5.7-1.4s-2.3-1.4-2.8-2.3
		c-0.5-1-0.8-2.7-0.8-5.1V58.5c3.6,0,5.9,0.5,7.1,1.5c1.2,1,2.7,3.3,4.7,6.9l13.6,25.8c0.9,0,16.2,0,17.3,0c0.5,0,0.7-0.5,0.7-1.5
		C257.2,90.3,257,89.8,256.5,89.8z"/>
	<path class="st0" d="M89.3,0.8C82.3,3.3,76.9,14,76,16.1L50.1,73.5l0-0.1l-6.8,15.2l0.7,2c0.3,0.7,0.8,1.1,1.5,1.2
		c0.9,0.1,1.4-0.3,1.7-0.9L81.3,17c2.2-4.9,4.3-8.2,6.2-9.9c1.9-1.7,4.3-2.6,7.1-2.7c0.3,0,3.8,0.6,3.9-1.8
		C98.7,0,95.2-0.4,89.3,0.8z"/>
</g>
</svg>
